<svg xmlns="http://www.w3.org/2000/svg" xml:space="preserve" width="800" height="800" fill="#fff" viewBox="0 0 32 32"><path d="m29.9 19.5-4-7c-.2-.3-.5-.5-.9-.5h-8c-.4 0-.7.2-.9.5l-4 7c-.2.3-.2.7 0 1l4 7c.2.3.5.5.9.5h8c.4 0 .7-.2.9-.5l4-7c.2-.3.2-.7 0-1M21 25c-2.8 0-5-2.2-5-5s2.2-5 5-5 5 2.2 5 5-2.2 5-5 5M15.6 9.5l-2.9-5c-.1-.3-.5-.5-.8-.5H6.1c-.3 0-.7.2-.9.5l-2.9 5c-.2.3-.2.7 0 1l2.9 5c.2.3.6.5.9.5h5.8c.4 0 .7-.2.9-.5l2.9-5c.1-.3.1-.7-.1-1M9 13c-1.7 0-3-1.3-3-3s1.3-3 3-3 3 1.3 3 3-1.3 3-3 3"/></svg>